<svg width="166" height="28" xmlns="http://www.w3.org/2000/svg" xmlns:xlink="http://www.w3.org/1999/xlink" xml:space="preserve" overflow="hidden"><defs><clipPath id="clip0"><rect x="72" y="35" width="166" height="28"/></clipPath><linearGradient x1="269.7" y1="4.71521" x2="288.375" y2="23.3893" gradientUnits="userSpaceOnUse" spreadMethod="pad" id="fill1"><stop offset="0" stop-color="#C869A8"/><stop offset="0.2" stop-color="#C869A8"/><stop offset="0.5" stop-color="#6E7EBB"/><stop offset="0.8" stop-color="#00BCF1"/><stop offset="1" stop-color="#00BCF1"/></linearGradient></defs><g clip-path="url(#clip0)" transform="translate(-72 -35)"><path d="M279.037 0.840334C271.755 0.840334 265.826 6.74601 265.826 14.0522 265.826 21.3585 271.731 27.2642 279.037 27.2642 286.344 27.2642 292.249 21.3585 292.249 14.0522 292.249 6.74601 286.344 0.840334 279.037 0.840334ZM279.037 26.5405C272.128 26.5405 266.526 20.9383 266.526 14.0289 266.526 7.11949 272.128 1.51727 279.037 1.51727 285.947 1.51727 291.549 7.11949 291.549 14.0289L291.549 14.0289C291.549 20.9383 285.947 26.5405 279.037 26.5405ZM274.649 4.03827 274.486 4.03827C268.977 6.53593 266.526 13.0252 269.023 18.5574 271.521 24.0662 278.01 26.5172 283.543 24.0195 289.075 21.5219 291.502 15.0326 289.005 9.50044 287.231 5.57888 283.333 3.05788 279.014 3.05788L278.757 3.05788C278.547 3.05788 278.407 3.22128 278.407 3.47805 278.407 3.73482 278.547 3.89822 278.757 3.89822L279.037 3.89822C284.616 3.89822 289.145 8.42668 289.145 14.0056 289.145 19.5844 284.616 24.1129 279.037 24.1129 273.459 24.1129 268.93 19.5844 268.93 14.0056 268.93 10.0373 271.264 6.44256 274.859 4.80858 275.046 4.71521 275.093 4.52846 274.999 4.29504 274.929 4.15498 274.812 4.08496 274.649 4.06161ZM274.509 6.69933C274.416 6.69933 274.346 6.72267 274.276 6.76935 270.284 9.38373 269.164 14.7525 271.801 18.7441 272.455 19.7245 273.295 20.5882 274.276 21.2184 274.346 21.2651 274.416 21.2885 274.509 21.2885 274.696 21.2885 274.836 21.1717 274.929 21.0317 275.093 20.8449 275.069 20.5415 274.883 20.3781 274.883 20.3781 274.883 20.3781 274.883 20.3781L274.883 20.3781C271.381 18.0672 270.401 13.3286 272.735 9.82724 273.295 8.96356 274.042 8.23994 274.883 7.67972 274.999 7.60969 275.069 7.51632 275.069 7.37626 275.069 7.23621 275.046 7.11949 274.953 7.00278 274.859 6.83938 274.696 6.72267 274.509 6.69933ZM278.851 21.6386C278.734 21.6386 278.641 21.6853 278.547 21.7553 278.454 21.872 278.407 22.0121 278.407 22.1755 278.407 22.4789 278.571 22.689 278.827 22.689L279.014 22.689C283.799 22.689 287.651 18.8141 287.651 14.0522 287.651 9.29036 283.776 5.41548 279.014 5.41548L278.827 5.41548C278.571 5.41548 278.407 5.62557 278.407 5.92902 278.407 6.23248 278.571 6.44256 278.827 6.44256L279.014 6.44256C283.216 6.44256 286.624 9.85058 286.624 14.0522 286.624 18.2539 283.216 21.6619 279.014 21.6619L278.827 21.6619ZM273.949 10.3408C274.136 10.1073 274.486 10.0607 274.719 10.2474 274.719 10.2474 274.742 10.2707 274.766 10.2941 275.046 10.4341 275.139 10.7843 274.976 11.0411 274.976 11.0411 274.976 11.0877 274.953 11.0877 273.692 12.8384 273.692 15.196 274.953 16.9467 275.139 17.2035 275.069 17.5536 274.812 17.717 274.812 17.717 274.766 17.7404 274.766 17.7404 274.556 17.9505 274.182 17.9505 273.972 17.7404 273.972 17.7404 273.949 17.717 273.925 17.6937 273.155 16.6199 272.735 15.3361 272.758 14.0056 272.758 12.6984 273.132 11.4145 273.902 10.3408L273.925 10.3408Z" fill="url(#fill1)" transform="matrix(1.02014 0 0 1 72 35.0295)"/><path d="M279.061 17.577C278.641 17.577 278.407 17.2735 278.407 16.8067 278.407 16.3398 278.641 16.0597 279.061 16.0597 280.181 16.013 281.045 15.0793 281.022 13.9589 280.975 12.8384 280.041 11.9748 278.921 11.9981L278.921 11.9981C278.407 11.9748 277.894 12.1382 277.497 12.4416L277.497 21.872C277.497 22.3155 277.193 22.549 276.75 22.549 276.306 22.549 276.003 22.3155 276.003 21.872L276.003 11.8814C276.096 11.5546 276.33 11.2978 276.61 11.1578 277.357 10.7376 278.197 10.5042 279.061 10.5042 281.022 10.5975 282.516 12.2782 282.422 14.2156 282.329 16.0364 280.882 17.4603 279.061 17.577L279.061 17.577ZM279.061 20.3547C278.641 20.3547 278.407 20.0513 278.407 19.5844 278.407 19.1176 278.641 18.8375 279.061 18.8375 281.699 18.8375 283.846 16.69 283.846 14.0522 283.846 11.4145 281.699 9.26701 279.061 9.26701 278.314 9.26701 277.567 9.43041 276.867 9.71052 276.516 9.82724 276.12 9.6405 276.003 9.29036 275.98 9.22033 275.956 9.12696 275.98 9.03359L275.98 3.40802C275.98 3.0112 276.26 2.75443 276.727 2.75443 277.193 2.75443 277.474 2.98785 277.474 3.40802L277.474 7.95983C277.987 7.81977 278.501 7.77309 279.037 7.77309 282.516 7.91314 285.2 10.831 285.083 14.309 284.943 17.577 282.329 20.2147 279.037 20.3547L279.061 20.3547Z" fill="#3E53A4" transform="matrix(1.02014 0 0 1 72 35.0295)"/><path d="M254.714 18.3706C255.485 18.8375 256.372 19.0709 257.282 19.0242 259.406 19.0242 260.667 17.9271 260.667 16.1764 260.667 14.4257 259.943 14.0756 257.959 13.422 256.652 13.0018 256.092 12.5817 256.092 11.9514 256.092 11.3212 256.792 10.7143 257.796 10.7143 258.706 10.7143 259.593 10.9477 260.363 11.4379L260.363 10.2241C259.593 9.75721 258.729 9.52378 257.842 9.54712 255.882 9.54712 254.691 10.4575 254.691 12.0214 254.691 13.5854 255.391 14.0522 257.072 14.6125 258.753 15.1727 259.266 15.4528 259.266 16.3398 259.266 17.2268 258.519 17.8804 257.306 17.8804 256.395 17.8804 255.508 17.6704 254.738 17.1802L254.738 18.4173ZM246.708 13.422C246.871 11.7647 247.758 10.7376 249.346 10.7376 250.933 10.7376 251.797 11.6246 251.843 13.422L246.708 13.422ZM253.01 17.1802C252.077 17.6003 251.096 17.7871 250.069 17.7871 247.852 17.7871 246.731 16.7366 246.638 14.6125L253.197 14.6125C253.197 14.379 253.267 13.8655 253.267 13.6321 253.267 11.0644 251.96 9.4771 249.462 9.4771 246.965 9.4771 245.237 11.5546 245.237 14.239 245.237 16.9234 246.848 18.9775 249.929 18.9775 251.003 19.0242 252.077 18.7908 253.057 18.3239L253.057 17.1335ZM241.899 18.8375 244.537 9.75721 243.137 9.75721 241.246 16.9 239.145 9.75721 237.628 9.75721 235.55 16.9934 233.636 9.75721 232.096 9.75721 234.687 18.8375 236.157 18.8375 238.351 11.6013 240.429 18.8141 241.899 18.8141ZM227.147 17.7871C225.326 17.7871 224.322 16.3865 224.322 14.2857 224.322 12.1848 225.303 10.7609 227.147 10.7609 228.991 10.7609 229.971 12.1615 229.971 14.2623 229.971 16.3632 228.944 17.7871 227.147 17.7871ZM227.147 19.0476C230.088 19.0476 231.465 16.9467 231.465 14.2857 231.465 11.6246 230.228 9.52378 227.147 9.52378 224.066 9.52378 222.805 11.6246 222.805 14.2857 222.805 16.9467 224.066 19.0476 227.147 19.0476ZM214.752 11.2278C215.406 10.8777 216.153 10.7143 216.899 10.7376 218.51 10.6209 219.911 11.858 220.027 13.4687 220.027 13.6321 220.027 13.8188 220.027 13.9822 220.027 16.4332 218.697 17.7871 216.339 17.7871 215.802 17.7871 215.289 17.717 214.775 17.5536L214.775 11.2278ZM213.305 18.5107C214.238 18.8141 215.195 19.0009 216.176 19.0009 219.467 19.0009 221.451 17.1568 221.451 13.9355 221.615 11.6713 219.934 9.68718 217.67 9.52378 217.46 9.52378 217.273 9.52378 217.063 9.52378 216.269 9.52378 215.499 9.68718 214.775 9.99063L214.775 5.46217 213.305 5.46217 213.305 18.5107ZM204.435 23.4126 206.162 18.8141 209.78 9.75721 208.216 9.75721 205.462 17.1802 202.754 9.75721 201.143 9.75721 204.761 18.8375 203.011 23.436 204.458 23.436ZM193.79 13.422C193.954 11.7647 194.841 10.7376 196.428 10.7376 198.015 10.7376 198.856 11.6246 198.926 13.422L193.79 13.422ZM200.116 17.1802C199.182 17.6003 198.202 17.7871 197.175 17.7871 194.981 17.7871 193.86 16.7366 193.767 14.6125L200.326 14.6125 200.326 13.6321C200.326 11.0644 199.019 9.4771 196.521 9.4771 194.024 9.4771 192.296 11.5546 192.296 14.239 192.296 16.9234 193.884 18.9775 196.965 18.9775 198.039 19.0476 199.136 18.8608 200.116 18.4173L200.116 17.1568ZM190.756 18.8375 190.756 12.8851C190.756 10.3174 189.215 9.52378 187.231 9.52378 185.83 9.54712 184.453 9.82724 183.146 10.2941L183.146 18.8141 184.57 18.8141 184.57 11.2044C185.317 10.9477 186.087 10.8076 186.881 10.8076 188.538 10.8076 189.309 11.3678 189.309 13.352L189.309 18.8141 190.732 18.8141ZM181.792 17.577C181.279 17.7404 180.742 17.8104 180.182 17.8104 179.528 17.8104 179.061 17.6237 179.061 16.4565L179.061 10.9477 181.442 10.9477 181.442 9.75721 179.061 9.75721 179.061 7.51632 177.661 7.51632 177.661 9.75721 176.143 9.75721 176.143 10.9477 177.661 10.9477 177.661 16.7366C177.661 18.3706 178.524 19.0476 179.855 19.0476 180.532 19.0476 181.185 18.9542 181.816 18.7208L181.816 17.577ZM173.879 8.02986C174.393 8.0532 174.813 7.67972 174.859 7.16618 174.859 7.11949 174.859 7.09615 174.859 7.04947 175.023 6.53593 174.743 5.97571 174.206 5.83565 173.669 5.6956 173.132 5.95236 172.992 6.48924 172.922 6.67598 172.922 6.88607 172.992 7.07281 172.992 7.58635 173.366 8.00651 173.879 8.0532ZM174.579 9.73387 173.155 9.73387 173.155 18.8141 174.579 18.8141 174.579 9.73387ZM164.705 11.3445C165.359 10.9477 166.106 10.7376 166.853 10.7843 168.464 10.6909 169.864 11.9281 169.934 13.5621 169.934 13.7021 169.934 13.8655 169.934 14.0056 169.934 16.4565 168.604 17.8104 166.246 17.8104 165.709 17.8104 165.196 17.7404 164.705 17.577L164.705 11.3678ZM164.705 23.436 164.705 18.8375C165.196 18.9775 165.709 19.0476 166.223 19.0476 169.467 19.0476 171.475 17.2035 171.475 13.9822 171.662 11.6946 169.957 9.71052 167.67 9.52378 167.436 9.52378 167.226 9.52378 166.993 9.52378 165.639 9.52378 164.309 9.96729 163.282 10.8543L163.282 23.436 164.705 23.436Z" fill="#4E4E4E" transform="matrix(1.02014 0 0 1 72 35.0295)"/><path d="M9.52378 24.3463C4.2717 24.3463 0 20.0746 0 14.8226 0 9.57047 4.2717 5.32211 9.52378 5.32211 14.7759 5.32211 19.0476 9.59381 19.0476 14.8459 19.0476 20.098 14.7759 24.3697 9.52378 24.3697ZM9.52378 6.44256C4.90195 6.44256 1.14379 10.2007 1.14379 14.8226 1.14379 19.4444 4.90195 23.2025 9.52378 23.2025 14.1456 23.2025 17.9038 19.4444 17.9038 14.8226 17.9038 10.2007 14.1456 6.44256 9.52378 6.44256Z" fill="#FF6113" transform="matrix(1.02014 0 0 1 72 35.0295)"/><path d="M10.1307 17.8804C9.96729 17.9038 9.78055 17.9271 9.61715 17.9271 8.70679 17.9271 7.98317 17.647 7.42295 17.0634 6.86273 16.4799 6.58261 15.7796 6.58261 14.9393 6.58261 14.0989 6.86273 13.1652 7.44629 12.5817 8.02986 11.9981 8.77682 11.6946 9.68718 11.6946 10.9944 11.6946 11.8347 12.2549 12.2315 13.352L14.4491 13.352C14.169 12.1848 13.5854 11.2978 12.7217 10.6909 11.8347 10.0607 10.8076 9.73387 9.68718 9.73387 8.56674 9.73387 7.00278 10.2241 5.99905 11.2044 5.01866 12.1848 4.52846 13.422 4.52846 14.9393 4.52846 17.4369 6.11576 18.5807 8.47336 18.3706 9.08027 18.3239 9.6405 18.1605 10.1774 17.8804L10.1774 17.8804Z" fill="#FF6113" transform="matrix(1.02014 0 0 1 72 35.0295)"/><path d="M14.5424 14.2623 14.5424 19.7012 12.8384 19.7012 12.8384 18.3473C11.2511 20.5882 7.7264 20.238 5.95236 18.4407 8.77682 19.5611 11.4846 18.3006 12.3249 16.0831L9.43041 16.0831 9.43041 14.239 14.5658 14.239Z" fill="#FF6113" transform="matrix(1.02014 0 0 1 72 35.0295)"/><path d="M27.2642 21.9187C26.3771 21.9187 25.5835 21.802 24.9299 21.5452 24.253 21.2885 23.6927 20.9617 23.2259 20.5181 22.759 20.0746 22.4089 19.5611 22.1521 18.9775 21.8954 18.394 21.7553 17.7637 21.7086 17.0868L23.5994 17.0868C23.6227 17.6237 23.7861 18.1372 24.0662 18.6507 24.3463 19.1409 24.7665 19.5611 25.3034 19.8646 25.8403 20.1914 26.5405 20.3314 27.3575 20.3314 28.1745 20.3314 28.9448 20.1447 29.4584 19.7478 29.9719 19.351 30.2053 18.8141 30.2053 18.1372 30.2053 17.4603 29.9719 16.9467 29.4817 16.5732 28.9915 16.1998 28.3846 15.8963 27.6376 15.6629L26.3305 15.2194C25.6535 14.986 25.0233 14.7292 24.4164 14.4491 23.8095 14.1456 23.3193 13.7488 22.9224 13.2586 22.5256 12.7684 22.3389 12.1148 22.3389 11.3212 22.3389 10.5275 22.5256 9.89726 22.8991 9.36038 23.2726 8.8235 23.7861 8.40334 24.463 8.12323 25.14 7.84311 25.9103 7.70306 26.774 7.70306 27.6376 7.70306 28.7114 7.8898 29.4117 8.26328 30.112 8.63676 30.6255 9.1503 30.9756 9.75721 31.3258 10.3875 31.5359 11.0644 31.5825 11.8114L29.6918 11.8114C29.6684 11.3678 29.5284 10.971 29.3417 10.5742 29.1316 10.1774 28.8281 9.87392 28.4079 9.61715 27.9878 9.36038 27.4276 9.24367 26.7506 9.24367 26.0737 9.24367 25.3968 9.40707 24.9532 9.73387 24.5097 10.0607 24.2763 10.5275 24.2763 11.1111 24.2763 11.6946 24.5331 12.2782 25.0466 12.6283 25.5602 12.9785 26.1904 13.2819 26.914 13.5154L28.2446 13.9589C28.9215 14.169 29.5517 14.4257 30.1353 14.7292 30.7189 15.0326 31.2091 15.4295 31.5825 15.943 31.956 16.4332 32.1428 17.1101 32.1428 17.9271 32.1428 19.1876 31.6993 20.168 30.8356 20.8683 29.9486 21.5686 28.7814 21.8954 27.3342 21.8954Z" fill="#FF6113" transform="matrix(1.02014 0 0 1 72 35.0295)"/><path d="M34.1269 21.6619 34.1269 7.95983 42.9037 7.95983 42.9037 9.61715 36.0877 9.61715 36.0877 13.492 41.4565 13.492 41.4565 15.0793 36.0877 15.0793 36.0877 20.0046 42.9971 20.0046 42.9971 21.6619 34.1035 21.6619Z" fill="#FF6113" transform="matrix(1.02014 0 0 1 72 35.0295)"/><path d="M44.8878 21.6619 44.8878 7.95983 49.9999 7.95983C51.167 7.95983 52.1007 8.12323 52.801 8.45002 53.5012 8.77682 54.0148 9.22033 54.3182 9.75721 54.645 10.3174 54.7851 10.9243 54.7851 11.6013 54.7851 12.2782 54.5283 13.2353 54.0381 13.8422 53.5479 14.4491 52.801 14.8692 51.8439 15.1027L55.1819 21.5219 55.1819 21.6386 53.1044 21.6386 49.8831 15.3594 46.8019 15.3594 46.8019 21.6386 44.8645 21.6386ZM46.8019 13.8888 49.8598 13.8888C50.9102 13.8888 51.6572 13.7021 52.1007 13.3286 52.5442 12.9551 52.7776 12.4183 52.7776 11.718 52.7776 11.0177 52.5442 10.4808 52.1007 10.1073 51.6572 9.73387 50.9102 9.54712 49.8598 9.54712L46.8019 9.54712 46.8019 13.8888Z" fill="#FF6113" transform="matrix(1.02014 0 0 1 72 35.0295)"/><path d="M56.7459 21.6619 56.7459 7.95983 59.687 7.95983 59.687 19.3277 65.406 19.3277 65.406 21.6386 56.7225 21.6386Z" fill="#FF6113" transform="matrix(1.02014 0 0 1 72 35.0295)"/><path d="M72.4088 21.8954C70.9615 21.8954 69.7477 21.6152 68.7907 21.0317 67.8336 20.4481 67.11 19.6311 66.6198 18.5574 66.1529 17.4836 65.9195 16.2465 65.9195 14.7992 65.9195 13.352 66.1529 12.0915 66.6198 11.0411 67.0866 9.99063 67.8103 9.1503 68.7907 8.59008 69.771 8.02986 70.9615 7.7264 72.4088 7.7264 73.856 7.7264 75.0932 8.00651 76.0502 8.59008 77.0072 9.17364 77.7309 9.99063 78.1977 11.0411 78.6646 12.0915 78.898 13.352 78.898 14.7992 78.898 16.2465 78.6646 17.4836 78.1977 18.5574 77.7309 19.6311 77.0072 20.4481 76.0502 21.0317 75.0932 21.6152 73.8793 21.8954 72.4088 21.8954ZM72.4088 19.7012C73.5992 19.7012 74.4629 19.281 75.0231 18.4173 75.5833 17.577 75.8635 16.3632 75.8635 14.7992 75.8635 13.2353 75.5833 12.0448 75.0231 11.2044 74.4629 10.3641 73.5992 9.94395 72.4088 9.94395 71.2183 9.94395 70.3546 10.3641 69.7944 11.2044 69.2342 12.0448 68.954 13.2586 68.954 14.7992 68.954 16.3398 69.2342 17.577 69.7944 18.4173 70.3546 19.2576 71.2183 19.7012 72.4088 19.7012Z" fill="#FF6113" transform="matrix(1.02014 0 0 1 72 35.0295)"/><path d="M85.8074 21.8954C84.5469 21.8954 83.4965 21.5919 82.6095 21.0083 81.7225 20.4248 81.0455 19.5844 80.5787 18.5107 80.1118 17.4369 79.8784 16.1998 79.8784 14.7525 79.8784 13.3053 80.1118 12.0448 80.602 10.9944 81.0922 9.94395 81.7925 9.12696 82.7495 8.54339 83.6832 7.95983 84.8504 7.67972 86.2276 7.67972 87.6048 7.67972 88.4218 7.8898 89.2388 8.28662 90.0558 8.70679 90.686 9.26701 91.1295 9.99063 91.5964 10.7143 91.8765 11.5546 92.0165 12.4883L89.2154 12.4883C89.0754 11.648 88.7486 10.9944 88.2584 10.5509 87.7448 10.1073 87.0679 9.87392 86.2276 9.87392 85.3872 9.87392 84.2435 10.2941 83.6832 11.1578 83.123 11.9981 82.8429 13.2119 82.8429 14.7525 82.8429 16.2931 83.123 17.5536 83.7066 18.394 84.2901 19.2576 85.1538 19.6778 86.2743 19.6778 87.3947 19.6778 87.9549 19.3977 88.4685 18.8375 88.982 18.2773 89.2621 17.5303 89.3321 16.5732L85.4806 16.5732 85.4806 14.4491 92.0399 14.4491 92.0399 21.5919 89.9157 21.5919 89.9157 20.0046 89.4955 20.0046C89.2621 20.4715 88.8653 20.8916 88.2817 21.2651 87.7215 21.6386 86.8812 21.8253 85.8074 21.8253Z" fill="#FF6113" transform="matrix(1.02014 0 0 1 72 35.0295)"/><path d="M94.1407 21.6619 94.1407 7.95983 97.0819 7.95983 97.0819 21.6619 94.1407 21.6619ZM94.4675 6.90941 94.4675 6.7927 95.7747 3.73482 98.4124 3.73482 98.4124 3.85153 96.8018 6.90941 94.4909 6.90941Z" fill="#FF6113" transform="matrix(1.02014 0 0 1 72 35.0295)"/><path d="M104.411 21.9187C103.338 21.9187 102.451 21.7787 101.727 21.4985 101.003 21.2184 100.397 20.8449 99.953 20.3547 99.5095 19.8879 99.1594 19.3744 98.9493 18.8141 98.7392 18.2539 98.5992 17.717 98.5758 17.1802L101.307 17.1802C101.307 17.6003 101.47 17.9971 101.704 18.394 101.937 18.7908 102.287 19.0942 102.754 19.351 103.221 19.6078 103.805 19.7245 104.505 19.7245 105.205 19.7245 105.835 19.5611 106.209 19.2576 106.582 18.9542 106.769 18.534 106.769 18.0438 106.769 17.5536 106.606 17.1802 106.279 16.8767 105.952 16.5732 105.532 16.3398 104.995 16.1531L103.011 15.4761C102.381 15.2661 101.774 15.0093 101.19 14.7058 100.607 14.4024 100.14 13.9822 99.7663 13.4687 99.3928 12.9551 99.2061 12.3016 99.2061 11.5079 99.2061 10.7143 99.4161 9.99063 99.8363 9.43041 100.256 8.87019 100.817 8.45002 101.564 8.14657 102.287 7.84311 103.128 7.70306 104.085 7.70306 105.042 7.70306 106.256 7.91314 106.956 8.30997 107.656 8.73013 108.17 9.24367 108.496 9.87392 108.823 10.5042 109.01 11.1578 109.08 11.8347L106.349 11.8347C106.326 11.5079 106.232 11.2044 106.069 10.901 105.905 10.5975 105.672 10.3641 105.322 10.1774 104.972 9.99063 104.528 9.89726 103.945 9.89726 103.361 9.89726 102.824 10.0373 102.521 10.2941 102.217 10.5742 102.054 10.901 102.054 11.3212 102.054 11.7413 102.217 12.1148 102.544 12.3949 102.871 12.675 103.291 12.8851 103.828 13.0719L105.812 13.7488C106.466 13.9589 107.073 14.2156 107.633 14.5424 108.216 14.8692 108.683 15.2661 109.057 15.8029 109.43 16.3165 109.617 17.0168 109.617 17.8571 109.617 19.1409 109.173 20.1447 108.263 20.8683 107.353 21.5919 106.092 21.9654 104.435 21.9654Z" fill="#FF6113" transform="matrix(1.02014 0 0 1 72 35.0295)"/><path d="M114.262 21.6619 114.262 10.2941 110.2 10.2941 110.2 7.98317 121.265 7.98317 121.265 10.2941 117.203 10.2941 117.203 21.6619 114.262 21.6619Z" fill="#FF6113" transform="matrix(1.02014 0 0 1 72 35.0295)"/><path d="M122.595 21.6619 122.595 7.95983 125.537 7.95983 125.537 21.6619 122.595 21.6619Z" fill="#FF6113" transform="matrix(1.02014 0 0 1 72 35.0295)"/><path d="M133.496 21.9187C131.512 21.9187 129.972 21.2885 128.875 20.0513 127.777 18.7908 127.241 17.0634 127.241 14.8226 127.241 12.5817 127.777 10.8777 128.851 9.61715 129.925 8.35665 131.466 7.7264 133.496 7.7264 135.527 7.7264 135.737 7.95983 136.578 8.40334 137.441 8.84685 138.095 9.4771 138.585 10.2707 139.075 11.0644 139.355 11.9748 139.425 13.0018L136.484 13.0018C136.391 12.0448 136.087 11.2978 135.551 10.7376 135.014 10.2007 134.337 9.92061 133.496 9.92061 132.656 9.92061 131.629 10.3408 131.092 11.2044 130.555 12.0681 130.275 13.2819 130.275 14.8459 130.275 16.4099 130.555 17.6937 131.115 18.5107 131.676 19.3277 132.469 19.7245 133.473 19.7245 134.477 19.7245 135.06 19.4444 135.574 18.8842 136.087 18.3239 136.391 17.577 136.484 16.6433L139.425 16.6433C139.332 17.6704 139.052 18.5807 138.585 19.3744 138.095 20.168 137.441 20.7983 136.601 21.2418 135.761 21.6853 134.734 21.9187 133.52 21.9187Z" fill="#FF6113" transform="matrix(1.02014 0 0 1 72 35.0295)"/><path d="M146.778 21.8954C145.331 21.8954 144.117 21.6152 143.16 21.0317 142.203 20.4481 141.48 19.6311 140.989 18.5574 140.522 17.4836 140.289 16.2465 140.289 14.7992 140.289 13.352 140.522 12.0915 140.989 11.0411 141.456 9.99063 142.18 9.1503 143.16 8.59008 144.141 8.02986 145.331 7.7264 146.778 7.7264 148.226 7.7264 149.463 8.00651 150.42 8.59008 151.377 9.17364 152.1 9.99063 152.567 11.0411 153.034 12.0915 153.268 13.352 153.268 14.7992 153.268 16.2465 153.034 17.4836 152.567 18.5574 152.1 19.6311 151.377 20.4481 150.42 21.0317 149.463 21.6152 148.249 21.8954 146.778 21.8954ZM146.778 19.7012C147.969 19.7012 148.832 19.281 149.393 18.4173 149.953 17.577 150.233 16.3632 150.233 14.7992 150.233 13.2353 149.953 12.0448 149.393 11.2044 148.832 10.3641 147.969 9.94395 146.778 9.94395 145.588 9.94395 144.724 10.3641 144.164 11.2044 143.604 12.0448 143.324 13.2586 143.324 14.7992 143.324 16.3398 143.604 17.577 144.164 18.4173 144.724 19.2576 145.588 19.7012 146.778 19.7012Z" fill="#FF6113" transform="matrix(1.02014 0 0 1 72 35.0295)"/></g></svg>